<svg width="102" height="70" viewBox="0 0 102 70" fill="none" xmlns="http://www.w3.org/2000/svg">
<path d="M17.0729 63.8026C17.5638 64.3979 17.8093 65.1826 17.8093 66.1568C17.8093 67.158 17.5638 67.9698 17.1002 68.6463C16.6366 69.2957 15.9547 69.6204 15.1093 69.6204C14.5638 69.6204 14.1275 69.5122 13.8275 69.2957C13.6366 69.1604 13.4184 68.9439 13.2002 68.6463V69.458H11.5366V60.799H13.2275V63.8837C13.4457 63.5861 13.6911 63.3696 13.9366 63.2073C14.2366 63.0178 14.6457 62.9096 15.1093 62.9096C15.9002 62.8825 16.582 63.2073 17.0729 63.8026ZM15.6547 67.7262C15.9002 67.3744 16.0093 66.9144 16.0093 66.3462C16.0093 65.8862 15.9547 65.5073 15.8184 65.2097C15.6002 64.6414 15.1638 64.3708 14.5638 64.3708C13.9366 64.3708 13.5275 64.6414 13.282 65.2097C13.1729 65.5073 13.0911 65.8862 13.0911 66.3462C13.0911 66.8874 13.2275 67.3474 13.4729 67.6992C13.7184 68.0509 14.1002 68.2404 14.5911 68.2404C15.0547 68.2404 15.4093 68.078 15.6547 67.7262Z" fill="#5775CF"/>
<path d="M21.2193 65.5614C21.5465 65.5343 21.7647 65.4802 21.9011 65.4261C22.1465 65.3179 22.2556 65.1555 22.2556 64.939C22.2556 64.6684 22.1738 64.5061 21.9829 64.3978C21.792 64.2896 21.5193 64.2355 21.1647 64.2355C20.7556 64.2355 20.4829 64.3437 20.292 64.5331C20.1829 64.6684 20.1011 64.8849 20.0465 65.1284H18.4102C18.4375 64.5602 18.6011 64.1002 18.8738 63.7484C19.3102 63.1801 20.1011 62.9095 21.192 62.9095C21.9011 62.9095 22.5284 63.0448 23.0738 63.3154C23.6193 63.586 23.892 64.1272 23.892 64.8849V67.8344C23.892 68.0509 23.892 68.2944 23.892 68.565C23.892 68.7815 23.9465 68.9439 24.0011 69.025C24.0556 69.1062 24.1374 69.1603 24.2465 69.2145V69.458H22.4193C22.3647 69.3227 22.3375 69.2144 22.3102 69.1062C22.2829 68.998 22.2829 68.8627 22.2556 68.7274C22.0102 68.9709 21.7375 69.1874 21.4375 69.3768C21.0829 69.5933 20.6465 69.7015 20.1829 69.7015C19.5829 69.7015 19.1193 69.5392 18.7102 69.2145C18.3284 68.8897 18.1375 68.4027 18.1375 67.8073C18.1375 67.0226 18.4374 66.4544 19.0647 66.1026C19.392 65.9132 19.9102 65.7779 20.5647 65.6967L21.2193 65.5614ZM22.2556 66.3191C22.1465 66.3732 22.0374 66.4273 21.9284 66.4814C21.8193 66.5355 21.6556 66.5626 21.4647 66.5897L21.0829 66.6708C20.7284 66.725 20.4556 66.8061 20.3193 66.8873C20.0465 67.0497 19.9102 67.2662 19.9102 67.5909C19.9102 67.8885 19.992 68.0779 20.1556 68.2132C20.3193 68.3485 20.5102 68.4027 20.7556 68.4027C21.1375 68.4027 21.4647 68.2944 21.7647 68.0779C22.0647 67.8615 22.2284 67.4826 22.2556 66.9144V66.3191Z" fill="#5775CF"/>
<path d="M30.3283 63.3966C30.7647 63.7484 30.9556 64.3166 30.9556 65.1284V69.4579H29.2102V65.5614C29.2102 65.2366 29.1556 64.966 29.0738 64.7766C28.9102 64.4519 28.5829 64.2896 28.1192 64.2896C27.5465 64.2896 27.1647 64.5331 26.9465 65.0202C26.8374 65.2637 26.7829 65.5884 26.7829 65.9943V69.4579H25.092V63.0448H26.7283V63.9919C26.9465 63.6672 27.1374 63.4236 27.3556 63.2883C27.7102 63.0178 28.1465 62.9095 28.6647 62.9095C29.3738 62.8825 29.9192 63.0448 30.3283 63.3966Z" fill="#5775CF"/>
<path d="M36.1102 65.3451C36.0829 65.1015 36.0011 64.8851 35.8647 64.6956C35.6738 64.425 35.3738 64.3168 34.992 64.3168C34.4192 64.3168 34.0374 64.5874 33.8192 65.1557C33.7102 65.4533 33.6556 65.8592 33.6556 66.3463C33.6556 66.8063 33.7102 67.1851 33.8192 67.4828C34.0102 68.024 34.392 68.2946 34.9647 68.2946C35.3738 68.2946 35.6465 68.1863 35.8102 67.9699C35.9738 67.7534 36.0829 67.4828 36.1102 67.1581H37.8283C37.8011 67.6722 37.6102 68.1593 37.2829 68.6193C36.7647 69.3499 35.9738 69.7287 34.9374 69.7287C33.9011 69.7287 33.1374 69.4311 32.6465 68.8087C32.1556 68.1863 31.9102 67.4016 31.9102 66.4275C31.9102 65.318 32.1829 64.4792 32.7283 63.8568C33.2738 63.2344 34.0102 62.9368 34.9647 62.9368C35.7829 62.9368 36.4374 63.1262 36.9556 63.478C37.4738 63.8297 37.7738 64.4792 37.8829 65.3992H36.1102V65.3451Z" fill="#5775CF"/>
<path d="M44.0734 68.6733C43.5279 69.3498 42.7097 69.6745 41.5916 69.6745C40.4734 69.6745 39.6552 69.3498 39.1097 68.6733C38.5643 67.9968 38.2916 67.212 38.2916 66.2649C38.2916 65.3449 38.5643 64.5331 39.1097 63.8566C39.6552 63.1801 40.4734 62.8284 41.5916 62.8284C42.7097 62.8284 43.5279 63.1801 44.0734 63.8566C44.6188 64.5331 44.8916 65.3449 44.8916 66.2649C44.8916 67.185 44.6188 67.9968 44.0734 68.6733ZM42.737 67.7532C43.0097 67.4015 43.1461 66.9144 43.1461 66.2649C43.1461 65.6155 43.0097 65.1284 42.737 64.7767C42.4643 64.4249 42.0825 64.2625 41.5916 64.2625C41.1007 64.2625 40.7188 64.4249 40.4461 64.7767C40.1734 65.1284 40.037 65.6155 40.037 66.2649C40.037 66.9144 40.1734 67.4015 40.4461 67.7532C40.7188 68.105 41.1007 68.2674 41.5916 68.2674C42.0825 68.2674 42.4643 68.0779 42.737 67.7532Z" fill="#5775CF"/>
<path fill-rule="evenodd" clip-rule="evenodd" d="M101.998 16.4433C101.998 16.4433 96.681 16.4253 91.0611 16.4433C85.4413 16.4612 84.0182 20.6423 84.0182 20.6423L69.9644 55.9694L75.4355 69.7162C81.0492 69.6946 82.4722 65.5171 82.4722 65.5171L101.998 16.4433Z" fill="#5CCBE1"/>
<path fill-rule="evenodd" clip-rule="evenodd" d="M60.5659 32.3462L60.5523 32.3127C60.5518 32.3088 60.5518 32.3048 60.5523 32.3008L60.5425 32.2781C59.3136 29.2729 56.7611 26.7954 53.8203 24.8741C56.7697 22.3618 58.6033 18.6174 58.6033 14.4375C58.6033 8.40568 53.271 0.726562 37.9575 0.726562H11.091V20.87H0V32.4539H11.0885V53.2697H39.3253C41.7587 53.2854 44.1853 53.0159 46.5525 52.467L46.5833 52.4598C48.3046 52.0561 49.9686 51.4486 51.5382 50.651L57.4555 65.5211C57.4555 65.5211 58.8798 69.701 64.4972 69.7202C70.1145 69.7393 75.4345 69.7202 75.4345 69.7202L60.5659 32.3462ZM27.0288 12.3116H36.9559C41.3284 12.3116 42.695 14.526 42.695 16.592C42.695 18.6581 41.3346 20.8581 36.9903 20.87H27.0288V12.3116ZM27.0288 32.4527H37.5544C42.1887 32.4527 43.6375 34.7999 43.6375 36.9903C43.6375 39.1808 42.196 41.5136 37.5913 41.5267H27.0288V32.4527Z" fill="#4B73DA"/>
<path d="M11.0885 32.4536H0L11.0885 37.4231V32.4536Z" fill="url(#paint0_linear)"/>
<path opacity="0.8" d="M45.8011 36.2273C45.8011 36.2273 44.6164 32.4362 38.1818 32.4362H37.7259V32.4541C42.2225 32.5127 43.6345 34.8288 43.6345 36.9905C43.6345 39.1762 42.193 41.5138 37.5883 41.5269H27.027V32.4421L11.0892 32.4541V53.2699H39.3235C41.7569 53.2856 44.1835 53.0161 46.5507 52.4672L46.5815 52.46C48.3028 52.0563 49.9669 51.4488 51.5364 50.6512L45.8011 36.2273Z" fill="url(#paint1_linear)"/>
<defs>
<linearGradient id="paint0_linear" x1="4.52486" y1="35.3027" x2="6.07456" y2="32.5457" gradientUnits="userSpaceOnUse">
<stop offset="0.29" stop-color="#86C9E0"/>
<stop offset="0.41" stop-color="#81C2D8"/>
<stop offset="0.59" stop-color="#74ADC1"/>
<stop offset="0.81" stop-color="#5E8D9C"/>
<stop offset="0.89" stop-color="#56808E"/>
</linearGradient>
<linearGradient id="paint1_linear" x1="23.6081" y1="46.1262" x2="30.2508" y2="34.3071" gradientUnits="userSpaceOnUse">
<stop stop-color="#4B6FDD"/>
<stop offset="1" stop-color="#415288"/>
</linearGradient>
</defs>
</svg>
